<svg width="574" height="115" viewBox="0 0 574 115" fill="none" xmlns="http://www.w3.org/2000/svg">
<path d="M155.405 56.3375H162.103C165.784 56.3375 168.681 55.5221 170.793 53.8913C172.905 52.2001 173.961 49.7539 173.961 46.5527C173.961 43.2911 172.935 40.875 170.883 39.3046C168.892 37.7342 166.025 36.949 162.284 36.949C160.957 36.949 159.719 37.0094 158.573 37.1302C157.426 37.1906 156.37 37.3114 155.405 37.4926V56.3375ZM162.737 65.4881H144V33.4156C144 32.3284 144.302 31.4828 144.905 30.8788C145.569 30.2748 146.414 29.7916 147.44 29.4292C149.371 28.8252 151.664 28.3722 154.319 28.0702C156.974 27.7682 159.448 27.6172 161.741 27.6172C169.706 27.6172 175.65 29.3084 179.573 32.6908C183.555 36.0732 185.547 40.6636 185.547 46.4621C185.547 50.3277 184.672 53.6799 182.922 56.5187C181.172 59.3575 178.607 61.5621 175.228 63.1325C171.849 64.7029 167.685 65.4881 162.737 65.4881ZM144 60.3239H155.495V83.6988C155.013 83.88 154.258 84.0309 153.233 84.1517C152.267 84.333 151.241 84.4236 150.155 84.4236C147.983 84.4236 146.414 84.031 145.448 83.2458C144.483 82.4002 144 81.0109 144 79.0781V60.3239Z" fill="black"/>
<path d="M196.285 68.1155L195.833 60.3239L220.091 56.6999C219.91 54.4047 219.035 52.4115 217.466 50.7203C215.897 49.0291 213.604 48.1835 210.587 48.1835C207.509 48.1835 204.945 49.2707 202.893 51.4451C200.841 53.5591 199.785 56.6093 199.725 60.5957L199.996 65.3069C200.54 69.1725 202.018 72.0113 204.432 73.8233C206.906 75.6353 210.013 76.5413 213.755 76.5413C216.289 76.5413 218.643 76.1789 220.815 75.4541C222.987 74.6689 224.707 73.8233 225.974 72.9173C226.819 73.4609 227.483 74.1555 227.966 75.0011C228.509 75.7863 228.78 76.6621 228.78 77.6285C228.78 79.1989 228.086 80.5579 226.698 81.7056C225.311 82.7928 223.44 83.6384 221.086 84.2424C218.733 84.8464 216.048 85.1483 213.031 85.1483C208.384 85.1483 204.251 84.3028 200.63 82.6116C197.07 80.86 194.264 78.2627 192.212 74.8199C190.221 71.3771 189.225 67.0887 189.225 61.9547C189.225 58.2703 189.798 55.0389 190.945 52.2605C192.091 49.4821 193.63 47.1869 195.561 45.3749C197.553 43.5025 199.846 42.1133 202.44 41.2073C205.035 40.2408 207.751 39.7576 210.587 39.7576C214.569 39.7576 218.039 40.573 220.996 42.2039C224.013 43.7743 226.367 45.9789 228.056 48.8177C229.806 51.6565 230.681 54.9181 230.681 58.6025C230.681 60.2937 230.229 61.5621 229.323 62.4077C228.479 63.1929 227.272 63.6761 225.703 63.8573L196.285 68.1155Z" fill="black"/>
<path d="M277.405 55.8845V64.6727H266.272V56.3375C266.272 53.6799 265.518 51.7471 264.009 50.5391C262.501 49.2707 260.479 48.6365 257.945 48.6365C256.074 48.6365 254.384 48.8781 252.876 49.3613C251.428 49.7841 250.13 50.2975 248.984 50.9015V64.6727H237.85V50.1767C237.85 48.7271 238.152 47.5493 238.755 46.6433C239.359 45.6769 240.264 44.8011 241.471 44.0159C243.281 42.8079 245.604 41.8113 248.44 41.0261C251.337 40.1804 254.535 39.7576 258.035 39.7576C264.13 39.7576 268.867 41.1166 272.246 43.8347C275.686 46.5527 277.405 50.5693 277.405 55.8845ZM237.85 60.2333H248.984V83.6988C248.501 83.88 247.807 84.0309 246.902 84.1517C245.997 84.333 245.001 84.4236 243.915 84.4236C241.863 84.4236 240.324 84.0612 239.298 83.3363C238.333 82.5511 237.85 81.1921 237.85 79.2593V60.2333ZM266.272 60.2333H277.405V83.6988C276.983 83.88 276.289 84.0309 275.324 84.1517C274.418 84.333 273.453 84.4236 272.427 84.4236C270.315 84.4236 268.746 84.0612 267.72 83.3363C266.755 82.5511 266.272 81.1921 266.272 79.2593V60.2333Z" fill="black"/>
<path d="M305.049 82.3397C301.489 82.3397 298.2 81.6754 295.183 80.3465C292.166 78.9573 289.752 76.6923 287.942 73.5515C286.132 70.4107 285.226 66.2733 285.226 61.1393C285.226 56.4281 286.132 52.5021 287.942 49.3613C289.813 46.1601 292.407 43.7743 295.726 42.2039C299.105 40.573 302.967 39.7576 307.312 39.7576C310.39 39.7576 313.226 40.1502 315.821 40.9354C318.476 41.7207 320.588 42.6266 322.157 43.6535C323.183 44.3179 323.997 45.1333 324.601 46.0997C325.264 47.0057 325.596 48.1231 325.596 49.4519V77.7191H314.734V50.4485C313.95 49.9653 312.985 49.5425 311.838 49.1801C310.691 48.8177 309.273 48.6365 307.584 48.6365C304.265 48.6365 301.549 49.6633 299.437 51.7169C297.386 53.7705 296.36 56.9113 296.36 61.1393C296.36 65.7901 297.356 69.0517 299.347 70.9241C301.399 72.7965 303.903 73.7327 306.86 73.7327C309.153 73.7327 310.993 73.3401 312.381 72.5549C313.829 71.7697 315.036 70.9241 316.002 70.0181L316.364 79.0781C315.278 79.9237 313.769 80.6787 311.838 81.3431C309.967 82.0075 307.704 82.3397 305.049 82.3397ZM314.915 84.1517V75.2729H325.596V84.5142C325.596 88.6214 324.661 91.9434 322.79 94.4802C320.92 97.0774 318.355 98.98 315.097 100.188C311.898 101.396 308.308 102 304.325 102C301.187 102 298.442 101.698 296.088 101.094C293.795 100.49 292.106 99.8558 291.019 99.1914C289.028 97.9834 288.032 96.3224 288.032 94.2084C288.032 93.1212 288.274 92.1548 288.757 91.3092C289.239 90.4636 289.813 89.8294 290.476 89.4066C291.985 90.373 293.856 91.2186 296.088 91.9434C298.381 92.6682 300.795 93.0306 303.33 93.0306C306.95 93.0306 309.786 92.3058 311.838 90.8562C313.89 89.467 314.915 87.2322 314.915 84.1517Z" fill="black"/>
<path d="M340.152 68.1155L339.699 60.3239L363.957 56.6999C363.776 54.4047 362.901 52.4115 361.332 50.7203C359.763 49.0291 357.47 48.1835 354.453 48.1835C351.375 48.1835 348.811 49.2707 346.759 51.4451C344.708 53.5591 343.652 56.6093 343.591 60.5957L343.863 65.3069C344.406 69.1725 345.884 72.0113 348.298 73.8233C350.772 75.6353 353.88 76.5413 357.621 76.5413C360.155 76.5413 362.509 76.1789 364.681 75.4541C366.854 74.6689 368.573 73.8233 369.841 72.9173C370.685 73.4609 371.349 74.1555 371.832 75.0011C372.375 75.7863 372.647 76.6621 372.647 77.6285C372.647 79.1989 371.953 80.5579 370.565 81.7056C369.177 82.7928 367.306 83.6384 364.953 84.2424C362.599 84.8464 359.914 85.1483 356.897 85.1483C352.25 85.1483 348.117 84.3028 344.496 82.6116C340.936 80.86 338.13 78.2627 336.078 74.8199C334.087 71.3771 333.091 67.0887 333.091 61.9547C333.091 58.2703 333.665 55.0389 334.811 52.2605C335.958 49.4821 337.496 47.1869 339.427 45.3749C341.419 43.5025 343.712 42.1133 346.307 41.2073C348.901 40.2408 351.617 39.7576 354.453 39.7576C358.436 39.7576 361.905 40.573 364.862 42.2039C367.879 43.7743 370.233 45.9789 371.922 48.8177C373.672 51.6565 374.547 54.9181 374.547 58.6025C374.547 60.2937 374.095 61.5621 373.19 62.4077C372.345 63.1929 371.138 63.6761 369.569 63.8573L340.152 68.1155Z" fill="black"/>
<path d="M421.272 55.8845V64.6727H410.138V56.3375C410.138 53.6799 409.384 51.7471 407.875 50.5391C406.367 49.2707 404.345 48.6365 401.811 48.6365C399.94 48.6365 398.251 48.8781 396.742 49.3613C395.294 49.7841 393.996 50.2975 392.85 50.9015V64.6727H381.717V50.1767C381.717 48.7271 382.018 47.5493 382.622 46.6433C383.225 45.6769 384.13 44.8011 385.337 44.0159C387.147 42.8079 389.471 41.8113 392.307 41.0261C395.203 40.1804 398.401 39.7576 401.901 39.7576C407.996 39.7576 412.733 41.1166 416.112 43.8347C419.552 46.5527 421.272 50.5693 421.272 55.8845ZM381.717 60.2333H392.85V83.6988C392.367 83.88 391.673 84.0309 390.768 84.1517C389.863 84.333 388.867 84.4236 387.781 84.4236C385.729 84.4236 384.191 84.0612 383.165 83.3363C382.199 82.5511 381.717 81.1921 381.717 79.2593V60.2333ZM410.138 60.2333H421.272V83.6988C420.849 83.88 420.155 84.0309 419.19 84.1517C418.285 84.333 417.319 84.4236 416.293 84.4236C414.181 84.4236 412.612 84.0612 411.587 83.3363C410.621 82.5511 410.138 81.1921 410.138 79.2593V60.2333Z" fill="black"/>
<path d="M431.175 67.4813V60.3239H442.308V67.3001C442.308 70.5013 443.123 72.7965 444.752 74.1857C446.442 75.5749 448.765 76.2695 451.722 76.2695C453.653 76.2695 455.282 76.0883 456.609 75.7259C457.937 75.3635 458.933 74.9709 459.596 74.5481V60.3239H470.73V75.4541C470.73 76.8433 470.488 78.0211 470.006 78.9875C469.583 79.8935 468.738 80.7391 467.471 81.5243C465.721 82.5512 463.489 83.3968 460.773 84.0612C458.118 84.786 455.071 85.1483 451.631 85.1483C447.467 85.1483 443.847 84.5444 440.769 83.3363C437.692 82.1283 435.308 80.2257 433.619 77.6285C431.989 74.9709 431.175 71.5885 431.175 67.4813ZM470.73 64.6727H459.596V41.1166C460.079 40.9958 460.773 40.875 461.678 40.7542C462.644 40.573 463.639 40.4824 464.665 40.4824C466.777 40.4824 468.316 40.8448 469.282 41.5696C470.247 42.2945 470.73 43.6535 470.73 45.6467V64.6727ZM442.308 64.6727H431.175V41.1166C431.657 40.9958 432.351 40.875 433.256 40.7542C434.162 40.573 435.157 40.4824 436.243 40.4824C438.355 40.4824 439.894 40.8448 440.86 41.5696C441.825 42.2945 442.308 43.6535 442.308 45.6467V64.6727Z" fill="black"/>
<path d="M480.001 28.2514C480.001 26.4998 480.605 25.02 481.812 23.812C483.079 22.604 484.648 22 486.518 22C488.449 22 489.988 22.604 491.135 23.812C492.342 25.02 492.945 26.4998 492.945 28.2514C492.945 29.9426 492.342 31.4224 491.135 32.6908C489.988 33.8988 488.449 34.5028 486.518 34.5028C484.648 34.5028 483.079 33.8988 481.812 32.6908C480.605 31.4224 480.001 29.9426 480.001 28.2514ZM480.906 59.9615H492.13V83.6988C491.648 83.88 490.954 84.0309 490.048 84.1517C489.143 84.333 488.148 84.4236 487.061 84.4236C485.01 84.4236 483.471 84.0612 482.445 83.3363C481.419 82.5511 480.906 81.1921 480.906 79.2593V59.9615ZM492.13 65.6693H480.906V41.3885C481.389 41.2073 482.083 41.0562 482.988 40.9354C483.954 40.7542 484.98 40.6636 486.066 40.6636C488.178 40.6636 489.717 41.0562 490.682 41.8414C491.648 42.5663 492.13 43.9253 492.13 45.9185V65.6693Z" fill="black"/>
<path d="M502.426 59.9615H513.559V70.6523C513.559 72.6455 514.132 74.0649 515.279 74.9105C516.486 75.7561 518.175 76.1789 520.348 76.1789C521.313 76.1789 522.339 76.0581 523.425 75.8165C524.572 75.5749 525.537 75.2729 526.322 74.9105C526.744 75.3937 527.136 75.9675 527.498 76.6319C527.861 77.2963 528.042 78.1117 528.042 79.0781C528.042 80.8297 527.197 82.2794 525.507 83.427C523.878 84.5746 521.313 85.1483 517.813 85.1483C513.046 85.1483 509.275 84.0914 506.499 81.9773C503.783 79.8029 502.426 76.2997 502.426 71.4677V59.9615ZM509.214 50.7203V41.9321H526.955C527.197 42.3549 527.438 42.9589 527.679 43.7441C527.981 44.5293 528.132 45.3447 528.132 46.1903C528.132 47.7003 527.77 48.8479 527.046 49.6331C526.322 50.3579 525.386 50.7203 524.24 50.7203H509.214ZM513.559 62.4077H502.426V29.7916C502.908 29.6104 503.602 29.4292 504.508 29.248C505.473 29.0668 506.469 28.9762 507.495 28.9762C509.607 28.9762 511.145 29.3688 512.111 30.154C513.076 30.8788 513.559 32.2076 513.559 34.1404V62.4077Z" fill="black"/>
<path d="M543.134 73.6421C542.169 71.6489 541.052 69.1725 539.785 66.2129C538.578 63.1929 537.311 59.7199 535.984 55.7939C534.656 51.8075 533.298 47.4285 531.91 42.6569C532.574 41.9321 533.419 41.3281 534.445 40.8448C535.471 40.3616 536.587 40.1201 537.794 40.1201C539.363 40.1201 540.63 40.4825 541.595 41.2073C542.621 41.8717 543.406 43.1099 543.949 44.9219C545.518 49.6331 547.087 54.2839 548.656 58.8743C550.285 63.4647 552.005 68.1457 553.815 72.9173H554.177C555.324 70.2597 556.47 67.1491 557.617 63.5855C558.763 59.9615 559.849 56.2167 560.875 52.3511C561.961 48.4855 562.867 44.8011 563.591 41.2978C564.315 40.9354 565.069 40.6636 565.854 40.4824C566.638 40.2408 567.483 40.1201 568.388 40.1201C569.897 40.1201 571.194 40.4825 572.28 41.2073C573.427 41.8717 574 43.0193 574 44.6501C574 46.0997 573.728 48.0325 573.185 50.4485C572.703 52.8041 572.009 55.4315 571.103 58.3307C570.198 61.2299 569.142 64.2499 567.935 67.3907C566.789 70.5315 565.552 73.5817 564.224 76.5413C562.957 79.4405 561.66 82.068 560.332 84.4236C557.255 89.92 554.419 94.0574 551.824 96.8358C549.229 99.6746 546.725 101.094 544.311 101.094C542.44 101.094 540.902 100.52 539.695 99.3726C538.548 98.2854 537.854 96.9264 537.613 95.2956C538.94 94.148 540.328 92.7588 541.777 91.128C543.285 89.5576 544.733 87.8664 546.121 86.0544C547.509 84.2424 548.686 82.4606 549.651 80.709C548.626 80.4069 547.6 79.8029 546.574 78.8969C545.548 77.9305 544.401 76.1789 543.134 73.6421Z" fill="black"/>
<path fill-rule="evenodd" clip-rule="evenodd" d="M23.9639 89.2583C23.9639 75.2666 35.8343 63.3707 50.9861 63.3707C61.0813 63.3707 73.0951 70.242 76.3227 80.2483C75.713 80.3256 59.2612 80.8753 59.2612 115C88.8027 113.368 115 88.9062 115 57.5816C115 26.257 88.3813 0 54.895 0C37.3405 0 12.228 7.16334 12.228 37.7235C7.37769 41.9322 2.28526 48.6059 0.823879 52.1017C-1.16647 56.8687 0.519051 60.5448 5.12734 60.0381C5.89837 59.9522 8.53424 59.3853 10.9729 58.7755C19.526 56.6368 22.4308 55.9668 23.166 55.9668C24.2957 55.9668 30.8764 59.978 30.8764 60.6651C19.3736 68.2064 14.9805 77.2336 14.9805 89.2583V101.103C15.7694 101.738 19.8398 105.114 23.955 107.278M48.3412 34.0559C48.3412 37.6806 45.275 40.6266 41.4826 40.6266C37.6902 40.6266 34.624 37.6892 34.624 34.0559C34.624 30.4227 37.6902 27.4852 41.4826 27.4852C45.275 27.4852 48.3412 30.4227 48.3412 34.0559Z" fill="black"/>
</svg>
